<?xml version="1.0" standalone="no"?>
<!DOCTYPE svg PUBLIC "-//W3C//DTD SVG 20010904//EN"
 "http://www.w3.org/TR/2001/REC-SVG-20010904/DTD/svg10.dtd">
<svg version="1.0" xmlns="http://www.w3.org/2000/svg"
 width="512.000000pt" height="512.000000pt" viewBox="0 0 512.000000 512.000000"
 preserveAspectRatio="xMidYMid meet">

<g transform="translate(0.000000,512.000000) scale(0.100000,-0.100000)"
fill="#000000" stroke="none">
<path d="M2369 4379 c-294 -31 -498 -146 -589 -332 -47 -97 -63 -177 -63 -312
0 -175 33 -335 114 -558 l32 -89 32 6 c39 8 65 -12 65 -50 0 -30 -25 -92 -46
-116 -27 -29 -28 -130 -4 -247 11 -57 19 -105 18 -107 -4 -3 -219 91 -294 129
-142 72 -210 204 -269 517 -31 162 -102 269 -218 323 -30 15 -61 27 -66 27 -6
0 10 -28 35 -62 106 -144 154 -284 154 -452 1 -117 17 -169 90 -276 56 -83
206 -232 345 -345 61 -49 114 -92 119 -96 14 -12 -192 -106 -283 -130 -117
-30 -241 -24 -325 14 -173 80 -250 216 -306 541 -54 311 -111 469 -201 556
-65 63 -118 65 -201 10 -41 -27 -137 -136 -127 -144 2 -1 36 -23 75 -48 120
-77 208 -178 263 -301 40 -88 51 -142 61 -294 15 -224 72 -354 220 -504 131
-132 265 -189 445 -189 172 0 321 52 513 176 97 63 138 70 171 28 43 -55 23
-94 -88 -166 -103 -68 -238 -132 -346 -164 -81 -25 -106 -28 -245 -28 -175 -1
-249 15 -368 80 l-64 35 -64 -36 c-213 -119 -350 -298 -329 -428 27 -160 208
-298 390 -296 l50 0 -48 25 c-58 30 -104 91 -113 150 -10 66 30 142 103 194
112 80 379 155 661 187 l154 18 29 -35 c25 -31 27 -36 13 -45 -189 -119 -315
-216 -417 -320 -70 -73 -127 -168 -127 -215 0 -41 54 -113 117 -157 203 -141
527 -161 698 -43 75 52 75 56 -11 69 -215 32 -300 151 -224 314 49 103 111
152 310 242 76 34 154 75 174 90 49 37 85 116 95 204 8 83 31 114 81 114 50 0
73 -31 81 -114 10 -88 46 -167 95 -204 20 -15 98 -56 174 -90 75 -34 157 -76
183 -93 111 -77 177 -215 147 -307 -28 -85 -107 -136 -244 -156 -86 -13 -86
-17 -11 -69 78 -53 156 -73 290 -74 173 0 297 37 421 126 52 37 104 111 104
147 0 67 -89 191 -215 300 -68 60 -226 174 -297 215 l-48 28 26 34 c31 40 36
41 214 19 231 -29 491 -98 595 -160 97 -57 152 -143 140 -220 -8 -58 -54 -119
-112 -149 l-48 -25 50 0 c182 -2 363 136 390 296 21 129 -100 289 -319 423
l-70 42 -65 -35 c-124 -66 -196 -82 -371 -81 -139 0 -164 3 -245 28 -108 32
-243 96 -346 164 -111 72 -131 111 -88 166 33 42 74 35 171 -28 192 -124 341
-176 513 -176 180 0 314 57 445 189 148 150 205 280 220 504 10 152 21 206 61
294 55 123 143 224 263 301 39 25 73 47 75 48 7 6 -77 109 -106 130 -111 82
-190 67 -267 -51 -71 -109 -115 -252 -160 -520 -49 -300 -130 -441 -296 -519
-89 -42 -209 -48 -331 -17 -91 24 -297 118 -283 130 5 4 59 47 119 96 212 172
360 338 411 463 19 47 24 75 24 158 0 168 48 308 154 452 25 34 41 62 35 62
-5 0 -36 -12 -66 -27 -116 -54 -187 -161 -218 -323 -59 -313 -127 -445 -269
-517 -86 -44 -289 -133 -293 -129 -2 2 6 50 17 107 24 115 23 218 -3 247 -70
80 -59 181 18 166 l32 -6 32 89 c46 126 78 239 97 346 22 121 22 311 0 397
-69 271 -280 422 -646 460 -109 11 -261 11 -371 -1z m-180 -1654 c65 -33 107
-115 98 -192 -6 -53 -28 -80 -72 -89 -47 -8 -78 12 -170 111 -109 118 -106
114 -75 145 13 13 34 20 63 21 23 0 51 4 62 9 31 13 63 12 94 -5z m900 -4 c49
-7 81 -27 81 -53 0 -16 -184 -207 -210 -218 -35 -15 -82 -5 -105 20 -10 11
-20 39 -22 63 -13 110 72 216 162 202 22 -4 64 -10 94 -14z"/>
</g>
</svg>
